<svg width="24" height="24" viewBox="0 0 24 24" fill="none" xmlns="http://www.w3.org/2000/svg">
<path d="M2.787 2.28C2.88149 2.25206 2.98055 2.24302 3.07853 2.25338C3.17652 2.26374 3.2715 2.29331 3.35805 2.3404C3.4446 2.38748 3.52103 2.45115 3.58296 2.52778C3.64489 2.60442 3.69112 2.6925 3.719 2.787L4.269 4.65H18.924C20.764 4.65 22.169 6.367 21.639 8.16L19.984 13.76C19.632 14.953 18.513 15.75 17.269 15.75H8.113C6.869 15.75 5.751 14.953 5.398 13.76L2.281 3.212C2.22485 3.02144 2.24659 2.81639 2.34145 2.64185C2.43632 2.46731 2.59656 2.33653 2.787 2.28ZM6.25 19.5C6.25 18.9033 6.48705 18.331 6.90901 17.909C7.33097 17.4871 7.90326 17.25 8.5 17.25C9.09674 17.25 9.66903 17.4871 10.091 17.909C10.5129 18.331 10.75 18.9033 10.75 19.5C10.75 20.0967 10.5129 20.669 10.091 21.091C9.66903 21.5129 9.09674 21.75 8.5 21.75C7.90326 21.75 7.33097 21.5129 6.90901 21.091C6.48705 20.669 6.25 20.0967 6.25 19.5ZM14.25 19.5C14.25 19.2045 14.3082 18.9119 14.4213 18.639C14.5343 18.366 14.7001 18.1179 14.909 17.909C15.1179 17.7001 15.366 17.5343 15.639 17.4213C15.9119 17.3082 16.2045 17.25 16.5 17.25C16.7955 17.25 17.0881 17.3082 17.361 17.4213C17.634 17.5343 17.8821 17.7001 18.091 17.909C18.2999 18.1179 18.4657 18.366 18.5787 18.639C18.6918 18.9119 18.75 19.2045 18.75 19.5C18.75 20.0967 18.5129 20.669 18.091 21.091C17.669 21.5129 17.0967 21.75 16.5 21.75C15.9033 21.75 15.331 21.5129 14.909 21.091C14.4871 20.669 14.25 20.0967 14.25 19.5Z" fill="white"/>
</svg>
