<svg width="24" height="24" viewBox="0 0 24 24" fill="none" xmlns="http://www.w3.org/2000/svg">
<path d="M11.523 1.332C11.5595 1.23458 11.6249 1.15062 11.7104 1.09135C11.7959 1.03208 11.8975 1.00033 12.0015 1.00033C12.1055 1.00033 12.2071 1.03208 12.2926 1.09135C12.3781 1.15062 12.4435 1.23458 12.48 1.332L15.07 8.675H22.385C22.4893 8.67542 22.5911 8.70771 22.6765 8.76754C22.762 8.82738 22.8272 8.9119 22.8633 9.0098C22.8994 9.10769 22.9047 9.21428 22.8786 9.31529C22.8525 9.41631 22.7961 9.50692 22.717 9.575L16.605 14.642L19.163 22.327C19.197 22.4299 19.1974 22.541 19.1642 22.6442C19.1309 22.7474 19.0658 22.8374 18.9782 22.9012C18.8906 22.9651 18.785 22.9994 18.6766 22.9994C18.5682 22.9993 18.4626 22.9649 18.375 22.901L12 18.224L5.622 22.9C5.53449 22.9634 5.42915 22.9974 5.3211 22.9971C5.21305 22.9969 5.10786 22.9624 5.02064 22.8986C4.93342 22.8349 4.86866 22.7451 4.83567 22.6422C4.80267 22.5393 4.80314 22.4286 4.837 22.326L7.396 14.641L1.283 9.574C1.20393 9.50592 1.14754 9.41531 1.1214 9.31429C1.09525 9.21328 1.10059 9.10669 1.1367 9.0088C1.17281 8.9109 1.23797 8.82638 1.32345 8.76654C1.40894 8.70671 1.51066 8.67442 1.615 8.674H8.931L11.523 1.332Z" fill="#FF9B3F"/>
<path d="M12 18.224L5.622 22.9C5.53449 22.9634 5.42915 22.9974 5.3211 22.9971C5.21305 22.9969 5.10786 22.9624 5.02064 22.8986C4.93342 22.8349 4.86866 22.7451 4.83567 22.6422C4.80267 22.5393 4.80314 22.4286 4.837 22.326L7.396 14.641L1.283 9.574C1.20393 9.50592 1.14754 9.41531 1.1214 9.31429C1.09525 9.21328 1.10059 9.10669 1.1367 9.0088C1.17281 8.9109 1.23797 8.82638 1.32345 8.76655C1.40894 8.70671 1.51066 8.67442 1.615 8.674H8.931L11.521 1.331C11.5574 1.2332 11.623 1.14892 11.7088 1.08955C11.7947 1.03018 11.8966 0.998577 12.001 0.999001L12 18.224Z" fill="#FF9B3F"/>
</svg>
